<?xml version="1.0" encoding="utf-8"?>
<!-- Generator: Adobe Illustrator 26.0.0, SVG Export Plug-In . SVG Version: 6.00 Build 0)  -->
<svg version="1.1" id="图层_1" xmlns:ns0="http://www.w3.org/2000/svg"
	 xmlns="http://www.w3.org/2000/svg" xmlns:xlink="http://www.w3.org/1999/xlink" x="0px" y="0px" viewBox="0 0 249.2 239.4"
	 style="enable-background:new 0 0 249.2 239.4;" xml:space="preserve">
<style type="text/css">
	.st0{fill:#F0F0F0;}
	.st1{clip-path:url(#SVGID_00000090283282751777030830000011620378694992213895_);}
	.st2{fill:#EA1313;}
	.st3{fill:#353535;}
	.st4{fill:none;stroke:#111111;stroke-width:1.39;stroke-miterlimit:10;}
	.st5{fill:none;stroke:#111111;stroke-width:1.39;stroke-miterlimit:10;stroke-dasharray:1.84,1.84;}
</style>
<g>
	<g id="Layer_1">
		<g>
			<g>
				<path class="st0" d="M268.8,178.1"/>
				<path class="st0" d="M269,172.1"/>
			</g>
		</g>
		<g>
			<g>
				<defs>
					<circle id="SVGID_1_" cx="124.6" cy="124.6" r="124.6"/>
				</defs>
				<clipPath id="SVGID_00000069378347405383296450000013621824454983378079_">
					<use xlink:href="#SVGID_1_"  style="overflow:visible;"/>
				</clipPath>
				<g style="clip-path:url(#SVGID_00000069378347405383296450000013621824454983378079_);">
					<g>
						<path class="st2" d="M61,166.8c-2.6,0-4.8-1.9-5.2-4.4c-0.5-2.9,1.4-5.6,4.3-6.2c0.1,0,7.7-1.4,12.9-5.4
							c3.3-2.5,7.3-6.9,10.5-10.4c2.9-3.1,5.2-5.6,6.9-6.9c0.9-0.7,2-1.1,3.2-1.1c1.7,0,3.3,0.8,4.3,2.1c0.8,1.1,1.2,2.5,1,4
							s-0.9,2.6-2.1,3.5c-1,0.7-3.3,3.3-5.4,5.6c-3.7,4-7.9,8.6-11.8,11.6c-7.3,5.6-17.1,7.4-17.5,7.5
							C61.6,166.8,61.3,166.8,61,166.8L61,166.8z"/>
						<path class="st3" d="M93.6,133.1c1.4,0,2.8,0.6,3.7,1.9c1.5,2,1.1,4.9-1,6.5c-1,0.8-3.3,3.3-5.6,5.7c-3.7,4-7.8,8.5-11.8,11.5
							c-7.2,5.6-16.8,7.3-17.2,7.4c-0.3,0.1-0.5,0.1-0.8,0.1c-2.2,0-4.2-1.6-4.6-3.8c-0.4-2.5,1.2-4.9,3.8-5.4
							c0.2,0,7.9-1.5,13.2-5.6c3.3-2.6,7.4-7,10.6-10.5c2.9-3.1,5.1-5.6,6.8-6.8C91.7,133.4,92.6,133.1,93.6,133.1 M93.6,131.7
							L93.6,131.7c-1.3,0-2.5,0.4-3.6,1.2c-1.8,1.4-4.1,3.8-7,7c-3.2,3.5-7.2,7.9-10.5,10.4c-5,3.9-12.5,5.3-12.6,5.3
							c-3.2,0.6-5.4,3.7-4.9,7c0.5,2.9,3,5,5.9,5c0.3,0,0.7,0,1-0.1c0.4-0.1,10.4-1.9,17.9-7.6c4-3.1,8.2-7.7,11.9-11.7l-1-1l1,0.9
							c2.1-2.2,4.4-4.8,5.3-5.5c1.3-1,2.1-2.4,2.4-3.9c0.2-1.6-0.2-3.2-1.1-4.5C97.3,132.6,95.5,131.7,93.6,131.7L93.6,131.7
							L93.6,131.7z"/>
					</g>
					<g>
						<path class="st2" d="M30.3,175.8c-0.7,0-1.3-0.1-1.9-0.4c-2.7-1.1-4.1-4.2-3-6.9c0.7-1.9,7.3-18.4,13.1-24
							c3.5-3.4,7.3-12.1,8.5-15.1c0.8-2,2.8-3.4,5-3.4c0.7,0,1.3,0.1,1.9,0.4c2.7,1,4.1,4.1,3.1,6.9c-0.5,1.3-5.1,13.2-11,18.9
							c-3.2,3.1-8.2,14.1-10.6,20.3C34.5,174.5,32.5,175.8,30.3,175.8L30.3,175.8z"/>
						<path class="st3" d="M51.9,126.7c0.5,0,1.1,0.1,1.7,0.3c2.4,0.9,3.6,3.6,2.7,6c-0.5,1.3-5.1,13.1-10.8,18.7
							c-3.2,3.1-8.3,14.3-10.8,20.5c-0.7,1.8-2.5,2.9-4.3,2.9c-0.6,0-1.1-0.1-1.7-0.3c-2.4-0.9-3.5-3.6-2.6-6
							c0.7-1.9,7.2-18.2,12.9-23.8c3.6-3.5,7.4-12.3,8.6-15.4C48.3,127.8,50,126.7,51.9,126.7 M51.9,125.3L51.9,125.3
							c-2.5,0-4.7,1.6-5.6,3.9c-1.1,2.8-4.9,11.5-8.3,14.9c-5.8,5.6-12.1,21.2-13.3,24.3c-1.2,3.1,0.3,6.6,3.4,7.8
							c0.7,0.3,1.4,0.4,2.2,0.4c2.5,0,4.7-1.5,5.6-3.8c2.6-6.6,7.5-17.2,10.5-20.1c5.9-5.8,10.6-17.8,11.1-19.2
							c1.2-3.1-0.4-6.6-3.5-7.8C53.3,125.4,52.6,125.3,51.9,125.3L51.9,125.3L51.9,125.3z"/>
					</g>
					<g>
						<path class="st2" d="M183.3,219.4c-1.3,0-2.6-0.5-3.6-1.4c-1.2-1.1-12-11.2-15.8-18.8c-3.6-7.2-9.4-23.4-9.5-23.6
							c-0.5-1.3-0.4-2.8,0.2-4.1c0.6-1.3,1.7-2.3,3-2.7c0.6-0.2,1.2-0.3,1.8-0.3c2.2,0,4.2,1.4,5,3.5c0.1,0.2,5.7,15.9,9,22.4
							c2.5,5,10.6,13.1,13.5,15.7c2.1,2,2.3,5.4,0.3,7.5C186.2,218.8,184.8,219.4,183.3,219.4L183.3,219.4z"/>
						<path class="st3" d="M159.5,169.2c1.9,0,3.7,1.2,4.4,3.1c0.1,0.2,5.7,15.9,9,22.5c2.5,5.1,10.7,13.2,13.6,15.9
							c1.9,1.7,2,4.7,0.3,6.5c-0.9,1-2.1,1.5-3.4,1.5c-1.1,0-2.2-0.4-3.1-1.2c-1.2-1.1-11.9-11.1-15.6-18.6
							c-3.6-7.1-9.2-22.9-9.4-23.5c-0.9-2.4,0.4-5.1,2.8-5.9C158.4,169.3,159,169.2,159.5,169.2 M159.5,167.8L159.5,167.8
							c-0.7,0-1.4,0.1-2,0.4c-1.5,0.5-2.7,1.6-3.4,3.1c-0.7,1.4-0.8,3.1-0.2,4.6c0.2,0.7,5.9,16.4,9.5,23.7
							c3.9,7.7,14.7,17.9,15.9,19c1.1,1,2.6,1.6,4.1,1.6c1.7,0,3.3-0.7,4.4-1.9c2.2-2.4,2.1-6.2-0.3-8.5
							c-2.7-2.5-10.9-10.7-13.3-15.5c-3.3-6.5-8.9-22.2-8.9-22.3C164.3,169.4,162,167.8,159.5,167.8L159.5,167.8L159.5,167.8z"/>
					</g>
					<g>
						<path class="st2" d="M144.9,212.7c-2.9,0-5.2-2.2-5.3-5.1c0-0.9-1-21.4,0.8-31c1.5-8.4,2.1-12.3,2.1-12.8
							c0.3-2.7,2.6-4.7,5.3-4.7c0.2,0,0.4,0,0.7,0c2.9,0.4,5,3,4.6,5.9c0,0-0.5,4-2.2,13.4c-1.5,8.5-0.6,28.4-0.6,28.6
							c0.1,1.4-0.4,2.8-1.4,3.8c-1,1-2.3,1.7-3.7,1.7C145,212.7,144.9,212.7,144.9,212.7L144.9,212.7z"/>
						<path class="st3" d="M147.7,159.9c0.2,0,0.4,0,0.6,0c2.5,0.3,4.3,2.6,4,5.2c0,0.2-0.5,4.1-2.2,13.3
							c-1.6,8.6-0.7,28.6-0.6,28.8c0.1,2.6-1.9,4.7-4.4,4.8c-0.1,0-0.1,0-0.2,0c-2.5,0-4.5-1.9-4.6-4.4c0-0.9-1-21.2,0.8-30.9
							c1.6-8.9,2.1-12.8,2.1-12.8C143.5,161.6,145.4,159.9,147.7,159.9 M147.7,158.5L147.7,158.5c-3,0-5.6,2.3-6,5.3
							c-0.1,0.4-0.6,4.4-2.1,12.7c-1.7,9.6-0.9,29-0.8,31.2c0.1,3.2,2.8,5.7,6,5.7c0.1,0,0.2,0,0.3,0c1.6-0.1,3.1-0.8,4.2-2
							c1.1-1.2,1.6-2.7,1.6-4.3c0-0.8-0.9-20.1,0.6-28.5c1.7-9.4,2.2-13.4,2.2-13.4c0.4-3.3-1.9-6.3-5.2-6.7
							C148.2,158.5,148,158.4,147.7,158.5L147.7,158.5L147.7,158.5z"/>
					</g>
					<g>
						<path class="st2" d="M182.2,178.9c-1.2,0-2.3-0.3-3.3-0.9c-1.2-0.7-2.1-1.9-2.4-3.3c-0.4-1.4-0.1-2.8,0.6-4
							c1-1.6,2.7-2.6,4.6-2.6c0.2,0,0.3,0,0.5,0c0.8-0.3,3-1.5,7.4-5.5c9.7-8.8,24.6-14.3,25.3-14.5c0.6-0.2,1.2-0.3,1.8-0.3
							c2.2,0,4.2,1.4,5,3.5c1,2.8-0.4,5.8-3.2,6.8c-0.1,0-13.6,4.9-21.7,12.4C192.8,174.2,187,178.9,182.2,178.9L182.2,178.9z"/>
						<path class="st3" d="M216.6,148.6c1.9,0,3.7,1.2,4.4,3.1c0.9,2.4-0.4,5-2.8,5.9c-0.1,0.1-13.6,5-21.9,12.5
							c-4.1,3.7-9.6,8.1-14.1,8.1c-1,0-2-0.2-2.9-0.8c-2.2-1.3-2.9-4.2-1.6-6.4c0.9-1.5,2.4-2.2,4-2.2c0.2,0,0.4,0,0.6,0
							c0.7-0.3,3.1-1.4,7.8-5.7c9.7-8.8,24.4-14.1,25-14.4C215.6,148.7,216.1,148.6,216.6,148.6 M184,169.5L184,169.5L184,169.5
							 M216.6,147.2c-0.7,0-1.4,0.1-2,0.4c-0.6,0.2-15.6,5.7-25.5,14.6c-4.1,3.8-6.3,4.9-7.1,5.3c-0.1,0-0.2,0-0.4,0
							c-2.1,0-4.1,1.1-5.2,2.9c-0.8,1.4-1.1,3-0.7,4.6c0.4,1.6,1.4,2.9,2.7,3.7c1.1,0.6,2.3,1,3.6,1c5,0,10.6-4.5,15-8.5
							c8.1-7.3,21.3-12.2,21.5-12.2c3.1-1.1,4.7-4.6,3.6-7.7C221.5,148.8,219.2,147.2,216.6,147.2L216.6,147.2L216.6,147.2z"/>
					</g>
					<g>
						<path class="st2" d="M196.8,209.9c-1.4,0-2.7-0.5-3.7-1.5c-1.5-1.4-14.3-13.7-18.1-22.5c-3.6-8.4-6.7-18.1-6.8-18.2
							c-0.4-1.4-0.3-2.8,0.3-4.1c0.6-1.3,1.8-2.2,3.1-2.6c0.5-0.2,1.1-0.3,1.6-0.3c2.3,0,4.4,1.5,5.1,3.7c0.1,0.4,3.1,9.7,6.4,17.2
							c2.5,5.8,12.2,15.6,15.7,19c2.1,2,2.2,5.4,0.2,7.5C199.6,209.4,198.2,209.9,196.8,209.9L196.8,209.9z"/>
						<path class="st3" d="M173.3,161.5c2,0,3.8,1.2,4.4,3.2c0,0.1,3.1,9.6,6.4,17.3c2.5,5.9,12.3,15.9,15.8,19.2
							c1.9,1.8,1.9,4.7,0.2,6.5c-0.9,1-2.1,1.4-3.4,1.4c-1.1,0-2.3-0.4-3.2-1.3c-1.4-1.4-14.2-13.6-18-22.2
							c-3.5-8.1-6.6-17.8-6.8-18.2c-0.8-2.4,0.6-5,3-5.8C172.3,161.6,172.8,161.5,173.3,161.5 M173.3,160.1L173.3,160.1
							c-0.6,0-1.2,0.1-1.8,0.3c-1.5,0.5-2.8,1.5-3.5,3c-0.7,1.4-0.9,3.1-0.4,4.6c0,0.1,3.2,9.9,6.8,18.3
							c3.9,8.9,16.8,21.3,18.3,22.7c1.1,1.1,2.6,1.6,4.1,1.6c1.6,0,3.2-0.7,4.4-1.9c2.3-2.4,2.2-6.2-0.2-8.5
							c-4.8-4.6-13.3-13.7-15.5-18.8c-3.2-7.5-6.3-16.8-6.4-17.2C178.2,161.8,175.9,160.1,173.3,160.1L173.3,160.1L173.3,160.1z"/>
					</g>
					<g>
						<path class="st2" d="M216.2,179.7c-0.5,0-1-0.1-1.4-0.2c-12.9-3.6-28.8-7.5-31.9-7.5h-0.3c-2.9,0-5.2-2.2-5.3-5.1
							c-0.1-2.9,2.1-5.4,5.1-5.6c0.1,0,0.3,0,0.4,0c5.9,0,24.4,4.9,34.9,7.9c1.4,0.4,2.5,1.3,3.2,2.5c0.7,1.2,0.9,2.7,0.5,4
							C220.7,178.1,218.5,179.7,216.2,179.7L216.2,179.7z"/>
						<path class="st3" d="M182.7,162.1c6.3,0,28.1,6,34.7,7.8c2.5,0.7,3.9,3.2,3.2,5.7c-0.6,2-2.4,3.4-4.5,3.4
							c-0.4,0-0.8-0.1-1.2-0.2c-13.1-3.6-29-7.5-32.1-7.5c0,0-0.1,0-0.1,0c-0.1,0-0.1,0-0.2,0c-2.5,0-4.5-1.9-4.6-4.4
							c-0.1-2.6,1.9-4.7,4.4-4.8C182.4,162.1,182.6,162.1,182.7,162.1 M182.7,160.7L182.7,160.7c-0.2,0-0.3,0-0.5,0
							c-3.3,0.1-5.9,3-5.7,6.3c0.1,3.2,2.8,5.8,6,5.8c0.1,0,0.2,0,0.2,0h0.1c2.7,0,17.5,3.5,31.7,7.4c0.5,0.1,1.1,0.2,1.6,0.2
							c2.7,0,5.1-1.8,5.8-4.4c0.4-1.5,0.2-3.2-0.6-4.6c-0.8-1.4-2.1-2.4-3.6-2.8C207.3,165.7,188.7,160.7,182.7,160.7L182.7,160.7
							L182.7,160.7z"/>
					</g>
					<g>
						<path class="st2" d="M133.1,231.5c-1.6,0-3.1-0.7-4.1-1.9c-1.9-2.2-1.6-5.6,0.7-7.5c0.1-0.1,13.6-11.4,18.4-21.2
							c5.7-11.6,15.2-20.7,15.6-21c1-0.9,2.3-1.5,3.7-1.5c1.5,0,2.9,0.6,3.9,1.7c1,1,1.5,2.4,1.5,3.8c0,1.4-0.6,2.7-1.7,3.7
							c-0.1,0.1-8.5,8.2-13.4,18c-5.8,11.8-20.5,24.1-21.1,24.6C135.6,231.1,134.4,231.5,133.1,231.5L133.1,231.5z"/>
						<path class="st3" d="M167.4,179.1c1.2,0,2.4,0.5,3.4,1.5c1.8,1.9,1.7,4.8-0.2,6.5c-0.1,0.1-8.6,8.2-13.5,18.2
							c-5.8,11.6-20.3,23.9-21,24.4c-0.9,0.7-1.9,1.1-3,1.1c-1.3,0-2.6-0.6-3.6-1.7c-1.6-2-1.4-4.9,0.6-6.5
							c0.1-0.1,13.7-11.5,18.6-21.4c5.7-11.5,15.1-20.5,15.5-20.8C165.1,179.6,166.2,179.1,167.4,179.1 M167.4,177.8L167.4,177.8
							c-1.6,0-3,0.6-4.1,1.6c-0.4,0.4-9.9,9.5-15.8,21.2c-4.7,9.5-17.7,20.5-18.2,20.9c-2.5,2.1-2.9,5.9-0.8,8.5
							c1.1,1.4,2.8,2.2,4.6,2.2c1.4,0,2.8-0.5,3.9-1.4c0.6-0.5,15.4-12.9,21.3-24.8c4.8-9.8,13.2-17.8,13.2-17.8
							c1.2-1.1,1.8-2.6,1.9-4.2c0-1.6-0.5-3.1-1.6-4.3C170.6,178.5,169,177.8,167.4,177.8L167.4,177.8L167.4,177.8z"/>
					</g>
					<g>
						<path class="st2" d="M130.2,193.2c-1.7,0-3.3-0.8-4.3-2.2c-0.9-1.1-1.2-2.6-1-4c0.2-1.4,1-2.6,2.1-3.5
							c2.9-2.2,17.6-13,23.2-16.7c6.2-4.1,13.5-7.4,13.8-7.6c0.7-0.3,1.5-0.5,2.2-0.5c2.1,0,4,1.2,4.8,3.1c1.2,2.7,0,5.8-2.6,7.1
							c-0.1,0-6.8,3.1-12.4,6.8c-5.8,3.8-22.6,16.2-22.8,16.4C132.5,192.8,131.4,193.1,130.2,193.2L130.2,193.2z"/>
						<path class="st3" d="M166.3,159.5c1.8,0,3.4,1,4.2,2.7c1.1,2.3,0,5.1-2.3,6.1c-0.1,0-6.8,3.1-12.4,6.8
							c-5.8,3.8-22.6,16.3-22.8,16.4c-0.8,0.6-1.8,0.9-2.8,0.9c-1.4,0-2.8-0.6-3.7-1.9c-1.5-2-1.1-4.9,1-6.5
							c0.7-0.5,17.2-12.7,23.2-16.7c6.2-4.1,13.4-7.4,13.7-7.5C165,159.6,165.7,159.5,166.3,159.5 M166.3,158.1L166.3,158.1
							c-0.9,0-1.7,0.2-2.5,0.5c-0.3,0.1-7.6,3.5-13.9,7.6c-5.9,3.9-21.5,15.4-23.3,16.7c-1.3,1-2.1,2.4-2.4,4s0.2,3.2,1.1,4.5
							c1.1,1.5,2.9,2.4,4.8,2.4c1.3,0,2.5-0.4,3.6-1.2c0.2-0.1,17-12.6,22.7-16.4c5.5-3.6,12.2-6.7,12.2-6.7c3-1.4,4.3-5,3-8
							C170.8,159.5,168.7,158.1,166.3,158.1L166.3,158.1L166.3,158.1z"/>
					</g>
					<g>
						<path class="st2" d="M155.7,117c-6.3,0-10.2-1.2-10.6-1.4c-2.8-0.9-4.3-3.9-3.4-6.7c0.7-2.2,2.8-3.6,5.1-3.6
							c0.6,0,1.1,0.1,1.7,0.3c0.1,0,2.8,0.8,7.3,0.8c1,0,2,0,3.1-0.1c7.9-0.6,28-0.6,28.8-0.6c2.9,0,5.3,2.4,5.3,5.3
							s-2.4,5.3-5.3,5.3c-0.2,0-20.5,0-28,0.6C158.3,116.9,157,117,155.7,117L155.7,117z"/>
						<path class="st3" d="M146.8,105.9c0.5,0,1,0.1,1.5,0.2c0,0,2.8,0.9,7.5,0.9c1,0,2,0,3.1-0.1c7.9-0.6,27.9-0.6,28.8-0.6
							c2.6,0,4.6,2.1,4.6,4.6s-2.1,4.6-4.6,4.6c-0.2,0-20.5,0-28,0.6c-1.4,0.1-2.7,0.2-3.9,0.2c-6.2,0-9.9-1.2-10.4-1.3
							c-2.4-0.8-3.7-3.4-2.9-5.8C143,107.2,144.8,106,146.8,105.9 M146.8,104.5c-2.6,0-4.9,1.7-5.7,4.1c-1.1,3.2,0.7,6.6,3.8,7.6
							c0.4,0.1,4.4,1.4,10.8,1.4c1.3,0,2.7-0.1,4-0.2c7.5-0.6,27.7-0.6,27.9-0.6c3.3,0,6-2.7,6-6s-2.7-6-6-6c-0.9,0-20.9,0-28.9,0.6
							c-1,0.1-2,0.1-3,0.1c-4.3,0-6.9-0.7-7.1-0.8C148.1,104.7,147.4,104.6,146.8,104.5L146.8,104.5L146.8,104.5z"/>
					</g>
					<g>
						<path class="st2" d="M158.8,106.8c-2.6,0-4.8-1.8-5.2-4.3c-0.5-2.9,1.4-5.7,4.3-6.2c0.2,0,5.4-1,14.7-2.3
							c8.7-1.2,27.6-6.6,28.4-6.8c0.5-0.1,1-0.2,1.5-0.2c2.4,0,4.5,1.6,5.1,3.9c0.8,2.8-0.8,5.8-3.7,6.6c-0.2,0.1-20.1,5.7-29.8,7.1
							c-9.1,1.3-14.2,2.2-14.3,2.2C159.4,106.8,159.1,106.8,158.8,106.8L158.8,106.8z"/>
						<path class="st3" d="M202.4,87.6c2,0,3.9,1.3,4.4,3.4c0.7,2.5-0.7,5-3.2,5.7c-0.8,0.2-20.2,5.7-29.7,7.1
							c-9.1,1.3-14.2,2.2-14.3,2.2c-0.3,0.1-0.6,0.1-0.9,0.1c-2.2,0-4.1-1.6-4.5-3.8c-0.5-2.5,1.2-4.9,3.7-5.4c0.2,0,5.4-1,14.7-2.3
							c8.9-1.3,28.3-6.8,28.5-6.8C201.5,87.7,202,87.6,202.4,87.6 M202.4,86.2L202.4,86.2c-0.6,0-1.1,0.1-1.7,0.2
							c-0.8,0.2-19.7,5.6-28.3,6.8c-9.1,1.3-14.2,2.2-14.8,2.3c-3.3,0.6-5.4,3.8-4.8,7c0.5,2.8,3,4.9,5.9,4.9c0.4,0,0.7,0,1.1-0.1
							c0.1,0,5.2-0.9,14.2-2.2c9.8-1.4,29.7-7.1,29.9-7.1c1.5-0.4,2.8-1.4,3.6-2.9c0.8-1.4,1-3,0.5-4.6
							C207.4,88,205.1,86.2,202.4,86.2L202.4,86.2L202.4,86.2z"/>
					</g>
					<g>
						<path class="st2" d="M164.5,125.7c-2.6,0-4.8-1.9-5.2-4.5c-0.5-2.9,1.5-5.6,4.4-6.1c6-1,30.5-1.8,33.3-1.9h0.2
							c2.9,0,5.2,2.3,5.3,5.2c0.1,2.9-2.2,5.4-5.1,5.5c-7.3,0.2-27.4,1-31.9,1.7C165.1,125.7,164.8,125.7,164.5,125.7L164.5,125.7z"
							/>
						<path class="st3" d="M197.1,114c2.5,0,4.5,2,4.6,4.5c0.1,2.5-1.9,4.7-4.5,4.8c-7.4,0.2-27.4,1-32,1.7c-0.2,0-0.5,0.1-0.8,0.1
							c-2.2,0-4.2-1.6-4.6-3.9c-0.4-2.5,1.3-4.9,3.8-5.3c6-1,30.4-1.8,33.2-1.9C197,114,197.1,114,197.1,114 M197.1,112.6
							c-0.1,0-0.1,0-0.2,0c-2.8,0.1-27.3,0.9-33.4,1.9c-3.3,0.5-5.5,3.6-5,6.9c0.5,2.9,3,5.1,5.9,5.1c0.3,0,0.6,0,1-0.1
							c4.5-0.7,24.5-1.5,31.8-1.7c3.3-0.1,5.9-2.9,5.8-6.2C203,115.1,200.4,112.6,197.1,112.6L197.1,112.6L197.1,112.6z"/>
					</g>
					<g>
						<path class="st2" d="M168.8,135.4c-5.5,0-9.9-0.3-12.9-0.8c-9-1.6-12.7-3-13.1-3.2c-1.3-0.5-2.4-1.5-2.9-2.8
							c-0.6-1.3-0.6-2.8-0.1-4.1c0.8-2.1,2.8-3.4,5-3.4c0.7,0,1.3,0.1,1.9,0.4c0.1,0,3.3,1.2,11.1,2.6c2.4,0.4,6.1,0.6,10.8,0.6
							c6.7,0,13.9-0.5,15.7-0.7c0.5-0.2,1.1-0.2,1.6-0.2c1.4,0,2.8,0.6,3.8,1.6c1,1,1.6,2.3,1.6,3.8c0,1.4-0.6,2.8-1.6,3.8
							c-1.4,1.4-2,2-15,2.4C172.6,135.4,170.7,135.4,168.8,135.4L168.8,135.4z"/>
						<path class="st3" d="M144.8,121.9c0.6,0,1.1,0.1,1.7,0.3c0,0,3.2,1.2,11.2,2.6c2.8,0.5,6.8,0.7,10.9,0.7
							c6.9,0,14.1-0.5,15.8-0.8c0.5-0.1,1-0.2,1.4-0.2c1.2,0,2.4,0.4,3.3,1.4c1.8,1.8,1.8,4.7,0,6.5c-1.2,1.2-1.8,1.8-14.5,2.2
							c-1.6,0-3.6,0.1-5.8,0.1c-4.3,0-9.2-0.2-12.8-0.8c-8.9-1.6-12.6-3-13-3.1c-2.4-0.9-3.6-3.6-2.6-6
							C141.2,123,142.9,121.9,144.8,121.9 M182.6,125.8L182.6,125.8L182.6,125.8 M182.6,125.9L182.6,125.9L182.6,125.9 M144.8,120.5
							c-2.5,0-4.7,1.5-5.6,3.8c-1.2,3.1,0.3,6.6,3.4,7.8c0.4,0.2,4.2,1.6,13.2,3.2c3.1,0.6,7.5,0.8,13,0.8c1.9,0,3.8,0,5.8-0.1
							c12.6-0.4,13.8-1,15.5-2.6c1.1-1.1,1.8-2.6,1.8-4.2c0-1.6-0.6-3.1-1.8-4.2c-1.1-1.1-2.6-1.8-4.2-1.8c-0.6,0-1.2,0.1-1.7,0.3
							c-1.9,0.3-8.9,0.7-15.5,0.7c-4.6,0-8.3-0.2-10.7-0.6c-7.7-1.4-10.9-2.5-11-2.6C146.3,120.6,145.5,120.5,144.8,120.5
							L144.8,120.5L144.8,120.5z"/>
					</g>
					<g>
						<path class="st2" d="M143.1,138.5c-1,0-2-0.3-2.8-0.8c-1.2-0.8-2-1.9-2.4-3.3c-0.3-1.4-0.1-2.8,0.7-4c3.2-5.1,12-19.5,13.7-25
							c2.1-6.9,3.3-13.5,3.3-13.6c0.4-2.6,2.6-4.4,5.2-4.4c0.3,0,0.6,0,0.9,0.1c2.9,0.5,4.8,3.3,4.3,6.2c0,0.3-1.3,7.3-3.6,14.9
							c-2.4,7.8-13.6,25.5-14.8,27.5C146.6,137.6,144.9,138.5,143.1,138.5L143.1,138.5z"/>
						<path class="st3" d="M160.8,88.1c0.3,0,0.5,0,0.8,0.1c2.5,0.4,4.2,2.8,3.8,5.3c-0.1,0.3-1.3,7.3-3.6,14.8
							c-2.4,7.7-13.5,25.4-14.8,27.3c-0.9,1.4-2.4,2.1-3.9,2.1c-0.9,0-1.7-0.2-2.5-0.7c-2.2-1.4-2.8-4.2-1.4-6.4
							c3.2-5.1,12-19.6,13.8-25.1c2.1-6.9,3.3-13.6,3.3-13.7C156.6,89.7,158.6,88.1,160.8,88.1 M160.8,86.7L160.8,86.7
							c-2.9,0-5.4,2.1-5.9,5c0,0.1-1.2,6.7-3.3,13.5c-1.5,4.8-9.1,17.8-13.6,24.8c-0.9,1.4-1.1,3-0.8,4.5s1.3,2.9,2.6,3.8
							c1,0.6,2.1,0.9,3.2,0.9c2.1,0,4-1,5.1-2.8c1.3-2,12.5-19.8,14.9-27.7c2.4-7.7,3.6-14.7,3.7-15c0.6-3.3-1.6-6.4-4.9-6.9
							C161.5,86.7,161.1,86.7,160.8,86.7L160.8,86.7L160.8,86.7z"/>
					</g>
					<g>
						<path class="st2" d="M133.5,122.2c-1.4,0-2.8-0.6-3.8-1.6c-1-1-1.6-2.3-1.6-3.8s0.6-2.8,1.6-3.8c1.6-1.6,4.1-4.7,5-6.6
							c1.7-3.9,12.2-23.2,13.4-25.4c0.9-1.7,2.7-2.8,4.7-2.8c0.9,0,1.8,0.2,2.5,0.6c2.6,1.4,3.5,4.6,2.1,7.2
							c-3.2,5.8-11.7,21.7-13,24.6c-2,4.6-6.7,9.4-7.2,9.9C136.2,121.7,134.9,122.2,133.5,122.2L133.5,122.2z"/>
						<path class="st3" d="M152.8,79c0.8,0,1.5,0.2,2.2,0.6c2.2,1.2,3.1,4,1.9,6.3c-3.2,5.8-11.7,21.7-13,24.7
							c-2,4.5-6.6,9.2-7.1,9.7c-0.9,0.9-2.1,1.4-3.3,1.4c-1.2,0-2.4-0.4-3.3-1.4c-1.8-1.8-1.8-4.7,0-6.5c1.5-1.5,4.2-4.7,5.1-6.8
							c1.7-3.9,12.2-23.2,13.4-25.4C149.5,79.8,151.1,79,152.8,79 M152.8,77.6L152.8,77.6c-2.2,0-4.2,1.2-5.3,3.2
							c-1.2,2.2-11.7,21.5-13.4,25.5c-0.8,1.9-3.3,4.9-4.9,6.4c-1.1,1.1-1.8,2.6-1.8,4.2s0.6,3.1,1.8,4.2c1.1,1.1,2.6,1.8,4.2,1.8
							s3.1-0.6,4.2-1.8c0.5-0.5,5.3-5.4,7.4-10.1c1.1-2.6,8.6-16.5,13-24.6c1.6-2.9,0.5-6.6-2.4-8.2
							C154.8,77.8,153.8,77.6,152.8,77.6L152.8,77.6L152.8,77.6z"/>
					</g>
					<g>
						<path class="st2" d="M141.5,122.5c-2.9,0-5.2-2.2-5.3-5.1c0-0.3-1.1-30.1-0.8-36.1c0.1-2.8,2.5-5.1,5.3-5.1c0.1,0,0.2,0,0.2,0
							c2.9,0.1,5.2,2.6,5.1,5.5c-0.2,4.4,0.5,25,0.8,35.3c0,1.4-0.5,2.8-1.4,3.8c-1,1-2.3,1.6-3.7,1.7L141.5,122.5L141.5,122.5z"/>
						<path class="st3" d="M140.7,76.8c0.1,0,0.1,0,0.2,0c2.5,0.1,4.5,2.3,4.4,4.8c-0.2,4.4,0.5,25,0.8,35.3
							c0.1,2.6-1.9,4.7-4.5,4.8c-0.1,0-0.1,0-0.2,0c-2.5,0-4.5-2-4.6-4.5c-0.1-1.2-1.1-30.2-0.8-36.1
							C136.2,78.7,138.2,76.8,140.7,76.8 M140.7,75.4L140.7,75.4c-3.2,0-5.9,2.5-6,5.8c-0.2,6,0.8,35.9,0.8,36.2
							c0.1,3.2,2.8,5.8,6,5.8c0.1,0,0.1,0,0.2,0c1.6-0.1,3.1-0.7,4.2-1.9c1.1-1.2,1.7-2.7,1.6-4.3c-0.4-10.3-1-30.9-0.8-35.2
							c0.1-3.3-2.5-6.1-5.8-6.3C140.8,75.4,140.8,75.4,140.7,75.4L140.7,75.4L140.7,75.4z"/>
					</g>
					<g>
						<path class="st2" d="M91.9,114.9c-1.2,0-2.4-0.4-3.4-1.2c-1.1-0.9-1.8-2.2-1.9-3.6c-0.1-1.4,0.3-2.8,1.2-3.9
							c0.7-0.8,3.2-3.3,11.1-7.9c6.1-3.5,17.2-14.5,21-18.4c1-1.1,2.4-1.6,3.8-1.6s2.7,0.5,3.7,1.5c2.1,2,2.2,5.4,0.1,7.5
							c-0.6,0.6-14.7,15.2-23.3,20.2c-6.4,3.7-8.2,5.5-8.4,5.7C94.9,114.3,93.4,114.9,91.9,114.9L91.9,114.9z"/>
						<path class="st3" d="M123.8,79c1.2,0,2.3,0.4,3.2,1.3c1.8,1.8,1.9,4.7,0.1,6.5c-0.6,0.6-14.7,15.1-23.2,20.1
							c-6.5,3.8-8.4,5.6-8.6,5.8c-0.9,1-2.2,1.6-3.5,1.6c-1,0-2.1-0.3-2.9-1.1c-2-1.6-2.2-4.5-0.6-6.5c0.7-0.8,3.1-3.2,10.9-7.8
							c6.1-3.6,17.4-14.6,21.2-18.5C121.4,79.4,122.6,79,123.8,79 M123.8,77.6L123.8,77.6c-1.6,0-3.2,0.7-4.3,1.8
							c-3.8,3.9-14.9,14.8-20.9,18.3c-7.8,4.5-10.4,7-11.3,8.1c-1,1.2-1.5,2.8-1.3,4.4s0.9,3,2.2,4.1c1.1,0.9,2.4,1.4,3.8,1.4
							c1.7,0,3.3-0.7,4.5-2c0.2-0.2,2.1-2,8.3-5.5c8.7-5.1,22.9-19.7,23.5-20.3c2.3-2.4,2.2-6.2-0.1-8.5
							C126.8,78.2,125.4,77.6,123.8,77.6L123.8,77.6L123.8,77.6z"/>
					</g>
					<g>
						<path class="st2" d="M99.8,131c-2,0-3.9-1.2-4.8-3c-1.3-2.6-0.1-5.8,2.5-7.1c5.7-2.7,15.9-8.7,18.9-12.9
							c4.9-6.9,8.4-11.8,8.4-11.8c1-1.4,2.6-2.2,4.3-2.2c1.1,0,2.2,0.3,3.1,1c1.1,0.8,1.9,2.1,2.1,3.5s-0.1,2.8-1,4
							c-0.9,1.3-4.1,5.7-8.3,11.7c-5.6,7.9-21.2,15.5-23,16.3C101.4,130.8,100.6,131,99.8,131L99.8,131z"/>
						<path class="st3" d="M129.2,94.7c0.9,0,1.9,0.3,2.7,0.9c2.1,1.5,2.5,4.4,1,6.5c0,0-3.5,4.8-8.4,11.7
							c-5.4,7.7-21,15.3-22.8,16.1c-0.6,0.3-1.3,0.5-2,0.5c-1.7,0-3.4-1-4.2-2.6c-1.1-2.3-0.1-5.1,2.2-6.2
							c5.8-2.8,16.1-8.8,19.2-13.1c4.9-7,8.4-11.8,8.4-11.8C126.3,95.3,127.7,94.7,129.2,94.7 M129.2,93.3L129.2,93.3
							c-1.9,0-3.7,0.9-4.9,2.5c0,0.1-3.6,4.9-8.4,11.8c-2.8,3.9-12.6,9.8-18.7,12.7c-3,1.4-4.3,5-2.8,8c1,2.1,3.1,3.4,5.4,3.4
							c0.9,0,1.8-0.2,2.6-0.6c1.8-0.9,17.6-8.6,23.3-16.6c4.2-6,7.4-10.4,8.3-11.6c0,0,0-0.1,0.1-0.1l0,0c0.9-1.3,1.3-2.9,1.1-4.5
							c-0.2-1.6-1.1-3-2.4-3.9C131.7,93.7,130.5,93.3,129.2,93.3L129.2,93.3L129.2,93.3z"/>
					</g>
					<g>
						<path class="st2" d="M139.2,119.1c-0.4,0-0.8,0-1.2-0.1c-12.1-2.8-31.9-25.3-35.7-29.8c-0.9-1.1-1.4-2.5-1.3-3.9
							c0.1-1.4,0.8-2.7,1.8-3.6c1-0.8,2.2-1.3,3.5-1.3c1.6,0,3,0.7,4.1,1.9c8.6,10,23.6,24.8,30,26.3c2.9,0.7,4.6,3.5,4,6.4
							C143.9,117.4,141.7,119.1,139.2,119.1L139.2,119.1z"/>
						<path class="st3" d="M106.4,81.1c1.3,0,2.6,0.6,3.5,1.6c8.1,9.4,23.4,25,30.3,26.5c2.5,0.6,4.1,3.1,3.5,5.5
							c-0.5,2.2-2.4,3.6-4.5,3.6c-0.3,0-0.7,0-1-0.1c-11.9-2.7-31.5-25.1-35.3-29.5c-1.7-1.9-1.4-4.9,0.5-6.5
							C104.3,81.5,105.3,81.1,106.4,81.1 M106.4,79.7L106.4,79.7c-1.4,0-2.8,0.5-3.9,1.4c-1.2,1-2,2.5-2.1,4.1s0.4,3.2,1.4,4.4
							c3.9,4.5,23.7,27.2,36.1,30c0.4,0.1,0.9,0.1,1.3,0.1c2.8,0,5.2-1.9,5.9-4.7c0.7-3.2-1.3-6.5-4.5-7.2
							c-6.3-1.4-21.1-16.1-29.6-26.1C109.8,80.5,108.1,79.7,106.4,79.7L106.4,79.7L106.4,79.7z"/>
					</g>
					<g>
						<path class="st2" d="M187.4,143.8c-1.9,0-3.8-1.1-4.7-2.8c-0.7-1.2-0.8-2.7-0.4-4c0.4-1.4,1.3-2.5,2.6-3.2h0c0,0,0,0,0.1-0.1
							c0.8-0.4,6-3.3,13.4-7.3c5.3-2.9,14.7-3.5,21.7-3.5c5.7,0,10.3,0.4,11.6,0.5c2.9,0.3,5.1,2.9,4.8,5.8
							c-0.2,2.8-2.5,4.8-5.3,4.8c-0.2,0-0.3,0-0.5,0c-3.2-0.3-7-0.5-10.6-0.5c-8.1,0-14,0.8-16.5,2.2c-8,4.4-13.6,7.4-13.6,7.4
							C189.2,143.5,188.3,143.8,187.4,143.8L187.4,143.8z"/>
						<path class="st3" d="M220.1,123.5c5.7,0,10.4,0.4,11.5,0.5c2.5,0.2,4.4,2.5,4.2,5c-0.2,2.4-2.2,4.2-4.6,4.2
							c-0.1,0-0.3,0-0.4,0c-2.9-0.3-6.8-0.5-10.7-0.5c-6.8,0-13.8,0.6-16.9,2.3c-8,4.4-13.6,7.4-13.6,7.4c-0.7,0.4-1.5,0.6-2.2,0.6
							c-1.6,0-3.2-0.9-4.1-2.4c-1.2-2.2-0.4-5.1,1.9-6.3c0,0,5.5-3,13.5-7.4C203.8,124.2,212.7,123.5,220.1,123.5 M220.1,122.2
							c-10.3,0-17.7,1.2-22,3.6c-6.5,3.6-11.5,6.3-13.4,7.3c-0.1,0-0.1,0.1-0.1,0.1l0,0c-2.9,1.6-4,5.2-2.4,8.2
							c1.1,1.9,3.1,3.1,5.3,3.1c1,0,2-0.2,2.9-0.7c0,0,5.6-3.1,13.6-7.5c2.5-1.4,8.4-2.1,16.2-2.1c3.5,0,7.4,0.2,10.5,0.5
							c0.2,0,0.4,0,0.5,0c3.1,0,5.7-2.4,6-5.5c0.3-3.3-2.1-6.2-5.4-6.5C230.8,122.6,225.9,122.2,220.1,122.2L220.1,122.2
							L220.1,122.2z"/>
					</g>
					<g>
						<path class="st2" d="M220.7,154c-0.6,0-1.1-0.1-1.7-0.3c-0.8-0.3-1-0.3-14-8.9c-13.1-8.7-19.1-17.7-19.4-18.1
							c-0.8-1.2-1-2.6-0.8-4c0.3-1.4,1.1-2.6,2.3-3.4c0.9-0.6,1.9-0.9,2.9-0.9c1.8,0,3.5,0.9,4.4,2.4c0.1,0.1,5.3,7.7,16.3,15
							c10.1,6.7,12.1,7.9,12.3,8.1c2.2,1.2,3.3,3.9,2.5,6.3C225.1,152.5,223,154,220.7,154L220.7,154z"/>
						<path class="st3" d="M190.1,119.2c1.5,0,3,0.7,3.9,2.1c0,0.1,5.2,7.8,16.5,15.2c10,6.6,12,7.9,12.4,8.1c1.9,1,2.9,3.4,2.2,5.5
							c-0.6,1.9-2.5,3.2-4.4,3.2c-0.5,0-1-0.1-1.5-0.2c-0.7-0.2-0.9-0.3-13.8-8.8c-13-8.6-18.9-17.5-19.2-17.9
							c-1.4-2.1-0.8-5,1.3-6.4C188.4,119.5,189.3,119.2,190.1,119.2 M190.1,117.8c-1.2,0-2.3,0.3-3.3,1c-1.3,0.9-2.3,2.2-2.6,3.8
							c-0.3,1.6,0,3.2,0.9,4.5c0.2,0.4,6.3,9.5,19.6,18.3c13,8.6,13.2,8.7,14.1,9c0.6,0.2,1.2,0.3,1.9,0.3c2.6,0,4.9-1.7,5.7-4.1
							c0.9-2.8-0.3-5.8-2.8-7.2c-0.4-0.2-2.4-1.5-12.3-8c-10.9-7.2-16.1-14.8-16.1-14.8C194.1,118.9,192.2,117.9,190.1,117.8
							L190.1,117.8L190.1,117.8z"/>
					</g>
					<g>
						<path class="st2" d="M234.6,157.7c-1.1,0-2.1-0.3-3-0.9c-1.4-0.9-13.8-9.5-18.1-15.7c-3.9-5.5-9.6-14.8-10.2-15.8
							c-0.8-1.2-1-2.6-0.6-4c0.3-1.4,1.2-2.6,2.4-3.3c0.8-0.5,1.8-0.8,2.8-0.8c1.9,0,3.6,0.9,4.5,2.5c1.5,2.4,6.5,10.5,9.9,15.3
							c2.5,3.5,10.8,9.9,15.4,13c1.2,0.8,2,2,2.2,3.4c0.3,1.4,0,2.8-0.8,4C238,156.8,236.4,157.7,234.6,157.7L234.6,157.7z"/>
						<path class="st3" d="M207.8,117.8c1.5,0,3.1,0.8,3.9,2.2c0.1,0.1,6.1,9.9,9.9,15.3c2.5,3.6,10.9,10,15.6,13.2
							c2.1,1.4,2.6,4.3,1.2,6.4c-0.9,1.3-2.4,2-3.8,2c-0.9,0-1.8-0.3-2.6-0.8c-1.4-0.9-13.6-9.4-17.9-15.5c-4-5.7-10-15.4-10.2-15.8
							c-1.3-2.2-0.7-5,1.5-6.4C206.1,118,207,117.8,207.8,117.8 M207.8,116.4L207.8,116.4c-1.1,0-2.2,0.3-3.1,0.9
							c-1.4,0.8-2.3,2.2-2.7,3.7c-0.4,1.6-0.1,3.2,0.7,4.6c0.6,1.1,6.4,10.4,10.3,15.9c4.4,6.3,16.9,14.9,18.3,15.9
							c1,0.7,2.2,1.1,3.4,1.1c2,0,3.9-1,5-2.6c0.9-1.3,1.2-2.9,0.9-4.5c-0.3-1.6-1.2-3-2.5-3.9c-5-3.4-13-9.6-15.2-12.9
							c-3.4-4.9-8.8-13.5-9.8-15.2l-0.1-0.1C211.8,117.5,209.9,116.4,207.8,116.4L207.8,116.4L207.8,116.4z"/>
					</g>
					<g>
						<path class="st2" d="M224.2,122.8c-2.6,0-4.9-1.9-5.2-4.5c0-0.2-3.6-23.5-4.9-34.7c-0.3-2.9,1.8-5.6,4.7-5.9
							c0.2,0,0.4,0,0.6,0c2.7,0,5,2,5.3,4.7c1.3,11,4.9,34.1,4.9,34.3c0.2,1.4-0.1,2.8-1,4c-0.8,1.1-2.1,1.9-3.5,2.1
							C224.7,122.8,224.5,122.8,224.2,122.8L224.2,122.8z"/>
						<path class="st3" d="M219.3,78.4c2.3,0,4.3,1.7,4.6,4.1c1.3,10.9,4.9,34.1,4.9,34.3c0.4,2.5-1.3,4.9-3.9,5.3
							c-0.2,0-0.5,0.1-0.7,0.1c-2.2,0-4.2-1.6-4.6-3.9c-0.1-1-3.6-23.6-4.9-34.7c-0.3-2.5,1.5-4.8,4.1-5.1
							C218.9,78.4,219.1,78.4,219.3,78.4 M219.3,77L219.3,77c-0.2,0-0.5,0-0.7,0c-3.3,0.4-5.6,3.4-5.3,6.7
							c1.3,11.3,4.9,34.5,4.9,34.7c0.5,2.9,3,5.1,5.9,5.1c0.3,0,0.6,0,0.9-0.1c1.6-0.2,3-1.1,3.9-2.4c0.9-1.3,1.3-2.9,1.1-4.5
							c0-0.2-3.6-23.4-4.9-34.3C224.9,79.3,222.3,77,219.3,77L219.3,77L219.3,77z"/>
					</g>
					<g>
						<path class="st2" d="M191.1,77.4c-1.7,0-7.3-4.9-16.8-14.6c-6.5-6.6-14.6-14.9-16.5-16.5c-1.1-0.9-1.7-2.2-1.9-3.6
							c-0.1-1.4,0.3-2.8,1.2-3.9c1-1.2,2.5-1.9,4-1.9c1.3,0,2.5,0.5,3.5,1.3c2.1,1.8,8.2,8,17.2,17.2c4.6,4.7,10.9,11.2,12.3,12.4
							c1.4,0.9,2.2,2.6,2.2,4.3C196.4,75,194.1,77.4,191.1,77.4L191.1,77.4z"/>
						<path class="st3" d="M161.3,37.6c1.1,0,2.1,0.4,3,1.1c2.1,1.8,8.1,7.9,17.1,17.1c4.9,5,11,11.2,12.3,12.4c1.2,0.8,2,2.2,2,3.8
							c0,2.6-2.1,4.6-4.6,4.6c-1.5,0-6.9-4.8-16.3-14.4c-6.5-6.6-14.6-14.9-16.5-16.6c-1.9-1.7-2.2-4.6-0.5-6.5
							C158.7,38.2,160,37.6,161.3,37.6 M191.1,67.5L191.1,67.5L191.1,67.5 M191.1,67.5L191.1,67.5L191.1,67.5 M191.1,67.5
							L191.1,67.5L191.1,67.5 M161.3,36.2L161.3,36.2c-1.8,0-3.4,0.8-4.6,2.1c-2.1,2.5-1.9,6.3,0.7,8.5c1.9,1.6,10.3,10.2,16.4,16.5
							c9.7,9.9,15.4,14.8,17.3,14.8c3.3,0,6-2.7,6-6c0-2-1-3.8-2.5-4.9c-1.5-1.3-7.6-7.7-12.2-12.3c-9-9.2-15.1-15.4-17.2-17.2
							C164.1,36.8,162.7,36.2,161.3,36.2C161.3,36.2,161.3,36.2,161.3,36.2z"/>
					</g>
					<g>
						<path class="st2" d="M72.7,100.9c-0.7,0-1.3-0.1-2-0.4l-0.1,0c-3.2-1.3-19.5-7.8-26.4-10.3c-2.8-1-4.1-4.1-3.1-6.8
							c0.8-2.1,2.8-3.4,5-3.4c0.6,0,1.3,0.1,1.9,0.3c7.4,2.8,24.8,9.7,26.7,10.5c1.3,0.5,2.4,1.5,2.9,2.8c0.6,1.3,0.6,2.8,0.1,4.1
							C76.9,99.6,74.9,100.9,72.7,100.9L72.7,100.9z"/>
						<path class="st3" d="M46.1,80.5c0.5,0,1.1,0.1,1.6,0.3c7.6,2.9,25.9,10.2,26.7,10.5c2.4,0.9,3.5,3.6,2.6,6
							c-0.7,1.8-2.5,2.9-4.3,2.9c-0.6,0-1.2-0.1-1.7-0.3c-0.2-0.1-19-7.6-26.5-10.4c-2.4-0.9-3.6-3.6-2.7-6
							C42.5,81.7,44.2,80.5,46.1,80.5 M46.1,79.1L46.1,79.1c-2.5,0-4.8,1.6-5.6,3.9c-1.2,3.1,0.4,6.6,3.5,7.7
							c6.6,2.5,21.8,8.5,26.3,10.3l0.2,0.1c0.7,0.3,1.5,0.4,2.2,0.4c2.5,0,4.7-1.5,5.6-3.8c0.6-1.5,0.6-3.1-0.1-4.6
							c-0.6-1.5-1.8-2.6-3.3-3.2c-2-0.8-19.3-7.7-26.7-10.5C47.6,79.3,46.8,79.1,46.1,79.1C46.1,79.1,46.1,79.1,46.1,79.1z"/>
					</g>
					<g>
						<path class="st2" d="M48.6,72.3c-0.9,0-1.9-0.2-2.7-0.7c-2.5-1.5-3.4-4.8-1.9-7.3c0.3-0.6,8-13.5,17.4-18.9
							c7.7-4.5,12.2-8.1,12.3-8.2c0.9-0.8,2.2-1.2,3.4-1.2c1.6,0,3.1,0.7,4.1,1.9c1.9,2.3,1.5,5.6-0.7,7.5
							c-0.2,0.2-5.2,4.2-13.8,9.2c-5.8,3.3-11.7,12-13.5,15.1C52.3,71.3,50.5,72.3,48.6,72.3L48.6,72.3z"/>
						<path class="st3" d="M77.2,36.5c1.3,0,2.7,0.6,3.6,1.7c1.6,2,1.3,4.9-0.6,6.5c-0.2,0.2-5.2,4.2-13.7,9.2
							c-5.9,3.4-12,12.2-13.8,15.4c-0.9,1.5-2.4,2.3-4,2.3c-0.8,0-1.6-0.2-2.3-0.6c-2.2-1.3-2.9-4.1-1.6-6.3
							C45,64,52.6,51.3,61.8,45.9c7.8-4.5,12.4-8.3,12.4-8.3C75.1,36.9,76.1,36.5,77.2,36.5 M77.2,35.2L77.2,35.2
							c-1.4,0-2.8,0.5-3.8,1.4c-0.2,0.2-4.6,3.7-12.2,8.2c-9.5,5.5-17.3,18.6-17.6,19.2c-1.7,2.9-0.7,6.6,2.1,8.2
							c0.9,0.6,2,0.8,3,0.8c2.1,0,4.1-1.1,5.2-3c1.8-3,7.7-11.6,13.3-14.9c8.6-5,13.7-9.1,13.9-9.3c2.6-2.1,2.9-5.9,0.8-8.5
							C80.6,35.9,79,35.1,77.2,35.2L77.2,35.2L77.2,35.2z"/>
					</g>
					<g>
						<path class="st2" d="M97.1,75.7c-0.9,0-1.8-0.2-2.5-0.7c-2.6-1.4-3.5-4.6-2.1-7.2c0-0.1,4.5-8.2,6.9-13.8
							c1.8-4.2,3.2-14.6,3.6-18.2c0.3-2.7,2.6-4.8,5.3-4.8c0.2,0,0.4,0,0.6,0c1.4,0.2,2.7,0.8,3.6,1.9c0.9,1.1,1.3,2.5,1.2,3.9
							c-0.2,1.5-1.6,14.9-4.4,21.3c-2.6,6.1-7.1,14.3-7.3,14.7C100.8,74.7,99,75.7,97.1,75.7L97.1,75.7z"/>
						<path class="st3" d="M108.1,31.8c0.2,0,0.3,0,0.5,0c2.5,0.3,4.4,2.5,4.1,5.1c-0.2,1.5-1.6,14.8-4.3,21.1
							c-2.6,6-7.1,14.3-7.3,14.6c-0.8,1.5-2.4,2.4-4.1,2.4c-0.8,0-1.5-0.2-2.2-0.6c-2.2-1.2-3.1-4-1.9-6.3c0.1-0.1,4.5-8.3,6.9-13.9
							c1.8-4.3,3.2-14.8,3.6-18.4C103.7,33.5,105.7,31.8,108.1,31.8 M108.1,30.4L108.1,30.4c-3.1,0-5.7,2.3-6,5.4
							c-0.5,5-1.9,14.4-3.5,18c-2.4,5.6-6.8,13.7-6.8,13.7c-1.6,2.9-0.5,6.6,2.4,8.2c0.9,0.5,1.9,0.7,2.9,0.7c2.2,0,4.2-1.2,5.3-3.2
							c0.2-0.3,4.7-8.7,7.3-14.8c2.8-6.5,4.2-20,4.4-21.5c0.2-1.6-0.3-3.2-1.3-4.4c-1-1.2-2.4-2-4.1-2.2
							C108.5,30.4,108.3,30.4,108.1,30.4L108.1,30.4L108.1,30.4z"/>
					</g>
					<g>
						<path class="st2" d="M150.5,38.8c-4.3,0-8.2-0.5-11.6-1.5c-10.4-3.2-15.9-7.8-16.2-8c-1.1-0.9-1.7-2.2-1.9-3.6
							c-0.1-1.4,0.3-2.8,1.2-3.9c1-1.2,2.5-1.9,4.1-1.9c1.3,0,2.5,0.5,3.4,1.3c0.2,0.1,4.4,3.5,12.4,5.9c2.4,0.7,5.2,1.1,8.5,1.1
							c4.9,0,9.3-0.8,10.5-1.1c0.5-0.1,0.9-0.2,1.4-0.2c2.3,0,4.3,1.5,5.1,3.6c0.9,2.8-0.6,5.8-3.4,6.7
							C164.1,37.3,158,38.8,150.5,38.8z"/>
						<path class="st3" d="M126.2,20.6c1.1,0,2.1,0.4,3,1.1c0,0,4.3,3.5,12.6,6.1c2.7,0.8,5.8,1.1,8.7,1.1c4.9,0,9.3-0.8,10.7-1.1
							c0.4-0.1,0.8-0.2,1.2-0.2c1.9,0,3.7,1.2,4.4,3.2c0.8,2.4-0.5,5-2.9,5.8c-0.1,0-6.1,1.5-13.5,1.5c-3.7,0-7.6-0.4-11.4-1.5
							c-10.3-3.1-15.7-7.7-15.9-7.8c-1.9-1.7-2.2-4.6-0.5-6.5C123.6,21.2,124.9,20.6,126.2,20.6 M126.2,19.2c-1.8,0-3.4,0.8-4.6,2.1
							c-1,1.2-1.5,2.8-1.4,4.4c0.1,1.6,0.9,3.1,2.1,4.1c0.2,0.2,5.9,4.9,16.4,8.1c3.4,1,7.4,1.6,11.8,1.6c7.6,0,13.9-1.6,13.9-1.6
							c3.1-1,4.9-4.5,3.8-7.6c-0.8-2.5-3.1-4.1-5.7-4.1c-0.5,0-1.1,0.1-1.6,0.2c-1.2,0.3-5.5,1.1-10.3,1.1c-3.2,0-6-0.3-8.3-1
							c-7.9-2.4-12-5.7-12.1-5.8C129,19.7,127.6,19.2,126.2,19.2L126.2,19.2L126.2,19.2z"/>
					</g>
					<g>
						<path class="st2" d="M121,55.6c-0.4,0-0.8,0-1.2-0.1c-1.4-0.3-2.6-1.2-3.3-2.3c-0.8-1.2-1-2.6-0.7-4c2.3-10.3,5.9-28.4,5.6-33
							c-0.1-1.4,0.4-2.8,1.3-3.9c0.9-1.1,2.2-1.7,3.6-1.8c0.1,0,0.2,0,0.4,0c2.8,0,5.1,2.2,5.3,5c0.5,7.7-5.2,33.2-5.9,36
							C125.7,53.9,123.5,55.6,121,55.6L121,55.6z"/>
						<path class="st3" d="M126.8,11.1c2.4,0,4.4,1.9,4.6,4.3c0.5,7.5-5.2,33-5.9,35.8c-0.5,2.2-2.4,3.6-4.5,3.6c-0.3,0-0.7,0-1-0.1
							c-2.5-0.6-4.1-3-3.5-5.5c2.3-10.3,6-28.5,5.7-33.2c-0.2-2.5,1.8-4.8,4.3-4.9C126.6,11.1,126.7,11.1,126.8,11.1 M126.8,9.8
							L126.8,9.8c-0.1,0-0.3,0-0.4,0c-1.6,0.1-3.1,0.8-4.1,2c-1.1,1.2-1.6,2.8-1.5,4.4c0.3,4.3-3.1,21.7-5.6,32.8
							c-0.7,3.2,1.3,6.5,4.5,7.2c0.4,0.1,0.9,0.2,1.3,0.2c2.8,0,5.2-1.9,5.9-4.7c0.7-2.9,6.4-28.5,5.9-36.2
							C132.6,12.2,130,9.7,126.8,9.8L126.8,9.8L126.8,9.8z"/>
					</g>
					<g>
						<path class="st2" d="M28.6,124.2c-1.9,0-3.7-1-4.6-2.7c-1.5-2.6-0.5-5.8,2-7.2c13.9-7.9,23-11.8,28.6-12.2c0.1,0,0.3,0,0.4,0
							c2.8,0,5.1,2.2,5.3,4.9c0.1,1.4-0.4,2.8-1.3,3.9s-2.2,1.7-3.6,1.8c-2.2,0.2-8.2,1.8-24.1,10.8
							C30.5,123.9,29.6,124.2,28.6,124.2L28.6,124.2z"/>
						<path class="st3" d="M55,102.7c2.4,0,4.4,1.9,4.6,4.3c0.2,2.6-1.7,4.8-4.3,4.9c-2.2,0.2-8.3,1.8-24.4,10.9
							c-0.7,0.4-1.5,0.6-2.3,0.6c-1.6,0-3.2-0.8-4-2.3c-1.3-2.2-0.5-5.1,1.7-6.3c13.9-7.9,22.9-11.7,28.3-12.1
							C54.8,102.7,54.9,102.7,55,102.7 M55,101.3L55,101.3c-0.2,0-0.3,0-0.5,0c-5.7,0.4-14.9,4.3-28.9,12.3
							c-2.9,1.6-3.9,5.3-2.3,8.2c1.1,1.9,3.1,3,5.2,3c1,0,2.1-0.3,3-0.8c16.4-9.3,22.1-10.6,23.8-10.7c1.6-0.1,3.1-0.8,4.1-2.1
							c1.1-1.2,1.6-2.8,1.5-4.4C60.8,103.8,58.1,101.3,55,101.3L55,101.3L55,101.3z"/>
					</g>
					<g>
						<path class="st2" d="M73.1,110.1c-0.8,0-1.5-0.2-2.2-0.5c-0.2-0.1-5.1-2.1-14.8-2.6c-1.5-0.1-3.1-0.1-4.8-0.1
							c-4.9,0-10.5,0.4-16.5,1.1c-0.8,0.1-1.3,0.1-1.5,0.1c-2.9,0-5.3-2.4-5.3-5.3s2.2-5.1,5-5.3l0.6-0.1c6.4-0.8,12.4-1.2,17.8-1.2
							c1.8,0,3.7,0.1,5.3,0.1c11.9,0.6,18,3.3,18.7,3.6c2.7,1.2,3.8,4.4,2.6,7.1C77.1,108.9,75.2,110.1,73.1,110.1L73.1,110.1z"/>
						<path class="st3" d="M51.3,96.9c1.8,0,3.6,0.1,5.3,0.1c11.8,0.6,17.8,3.2,18.4,3.5c2.3,1.1,3.3,3.8,2.3,6.1
							c-0.8,1.7-2.5,2.7-4.2,2.7c-0.6,0-1.3-0.1-1.9-0.4c0,0-5.1-2.2-15.1-2.7c-1.5-0.1-3.2-0.1-4.8-0.1c-5,0-10.5,0.4-16.6,1.1
							c-0.8,0.1-1.3,0.1-1.4,0.1c-2.6,0-4.6-2.1-4.6-4.6s1.9-4.5,4.3-4.6l0.6-0.1C40,97.3,45.9,97,51.3,96.9 M51.3,95.5L51.3,95.5
							c-5.4,0-11.4,0.4-17.9,1.2l-0.6,0.1c-3.1,0.2-5.6,2.8-5.6,6c0,3.3,2.7,6,6,6c0.2,0,0.8,0,1.6-0.1c6-0.7,11.5-1.1,16.5-1.1
							c1.7,0,3.2,0,4.8,0.1c9.6,0.5,14.4,2.5,14.6,2.6c0.8,0.3,1.6,0.5,2.5,0.5c2.3,0,4.5-1.4,5.5-3.5c1.4-3,0-6.6-3-8
							c-0.7-0.3-6.9-3-18.9-3.7C54.9,95.6,53.1,95.5,51.3,95.5L51.3,95.5L51.3,95.5z"/>
					</g>
					<g>
						<path class="st2" d="M102.2,85.2c-2.5,0-4.7-1.8-5.2-4.2c-0.7-3-3.5-11.3-8.6-14.2c-6.9-3.9-10.1-4.7-10.2-4.7
							c-2.8-0.6-4.7-3.4-4.2-6.2c0.5-2.5,2.7-4.3,5.2-4.3c0.3,0,0.6,0,0.9,0.1c0.8,0.1,5,1,13.6,5.9c10,5.7,13.4,19.5,13.7,21.1
							c0.3,1.4,0.1,2.8-0.7,4c-0.8,1.2-1.9,2-3.3,2.3C103,85.2,102.6,85.2,102.2,85.2L102.2,85.2z"/>
						<path class="st3" d="M79.2,52.4c0.2,0,0.5,0,0.8,0.1c0.7,0.1,4.8,1,13.4,5.8c9.8,5.5,13,19.1,13.4,20.6c0.6,2.5-1,5-3.5,5.5
							c-0.3,0.1-0.7,0.1-1,0.1c-2.1,0-4-1.5-4.5-3.6C97,77.8,94,69.3,88.8,66.3c-7.2-4-10.4-4.8-10.4-4.8c-2.5-0.5-4.1-2.9-3.7-5.4
							C75.1,53.9,77,52.4,79.2,52.4 M79.2,51L79.2,51c-2.9,0-5.3,2.1-5.9,4.9c-0.6,3.2,1.5,6.3,4.7,7c0,0,3.2,0.7,10,4.6
							c4.8,2.7,7.6,11,8.2,13.7c0.6,2.7,3.1,4.7,5.9,4.7c0.4,0,0.9-0.1,1.3-0.1c1.6-0.3,2.9-1.3,3.8-2.6c0.9-1.4,1.2-3,0.8-4.5
							C107.7,77,104.3,62.9,94,57c-8.5-4.8-12.8-5.8-13.8-6C79.9,51,79.5,51,79.2,51L79.2,51L79.2,51z"/>
					</g>
					<g>
						<path class="st2" d="M95.9,96.1c-4.9,0-17-8.9-22.1-15.3c-1.8-2.3-1.4-5.7,0.8-7.5c0.9-0.8,2.1-1.2,3.3-1.2
							c1.6,0,3.2,0.7,4.2,2c4.6,5.8,12.7,10.5,14.7,11.4c2.1,0.5,3.7,2.2,4,4.3c0.5,2.9-1.5,5.6-4.4,6.1
							C96.3,96.1,96.1,96.1,95.9,96.1L95.9,96.1z"/>
						<path class="st3" d="M78,72.9c1.4,0,2.7,0.6,3.6,1.7c4.8,6.1,13.1,10.8,15,11.7c1.8,0.4,3.2,1.8,3.6,3.8
							c0.4,2.5-1.3,4.9-3.8,5.3c-0.2,0-0.3,0-0.5,0c-4.5,0-16.5-8.8-21.5-15c-1.6-2-1.3-4.9,0.7-6.5C76,73.2,77,72.9,78,72.9
							 M78,71.5L78,71.5c-1.3,0-2.7,0.5-3.8,1.3c-2.6,2.1-3,5.9-0.9,8.4c5.2,6.5,17.5,15.5,22.6,15.5c0.2,0,0.5,0,0.7-0.1
							c3.3-0.5,5.5-3.7,4.9-6.9c-0.4-2.4-2.1-4.3-4.5-4.8C95,84,87.2,79.4,82.7,73.7C81.6,72.3,79.8,71.5,78,71.5L78,71.5L78,71.5z"
							/>
					</g>
					<g>
						<path class="st2" d="M49.4,44.7c-2.3,0-4.3-1.5-5.1-3.6c-0.9-2.8,0.5-5.7,3.3-6.7c0.5-0.2,3.8-1.2,13.6-2.3
							c9.7-1.1,23.5-2.2,23.7-2.2s0.3,0,0.4,0c2.8,0,5.1,2.2,5.3,4.9c0.1,1.4-0.3,2.8-1.3,3.9c-0.9,1.1-2.2,1.7-3.6,1.8
							c-0.1,0-13.8,1.1-23.3,2.1c-8.6,1-11.4,1.8-11.4,1.8C50.5,44.6,50,44.7,49.4,44.7L49.4,44.7z"/>
						<path class="st3" d="M85.3,30.6c2.4,0,4.4,1.8,4.6,4.3c0.2,2.5-1.7,4.8-4.2,5c-0.1,0-13.8,1.1-23.3,2.1
							c-8.7,1-11.5,1.8-11.5,1.8c-0.5,0.2-0.9,0.2-1.4,0.2c-2,0-3.8-1.2-4.4-3.2c-0.8-2.4,0.5-5,2.8-5.8c0.5-0.2,3.7-1.2,13.5-2.3
							c9.7-1.1,23.5-2.2,23.6-2.2C85.1,30.6,85.2,30.6,85.3,30.6 M85.3,29.2L85.3,29.2c-0.2,0-0.3,0-0.5,0c-0.6,0-14.2,1.1-23.7,2.2
							c-9.6,1.1-13,2.1-13.8,2.3c-3.1,1.1-4.8,4.4-3.7,7.6c0.8,2.5,3.1,4.1,5.7,4.1c0.6,0,1.2-0.1,1.8-0.3c0,0,2.8-0.8,11.3-1.8
							c9.3-1,22.7-2.1,23.3-2.1c1.6-0.1,3.1-0.9,4.1-2.1c1-1.2,1.6-2.8,1.4-4.4C91.1,31.6,88.4,29.1,85.3,29.2L85.3,29.2L85.3,29.2z
							"/>
					</g>
					<g>
						<path class="st2" d="M52,98.7c-0.3,0-0.5,0-0.6,0c-1.4-0.2-2.7-0.8-3.6-1.9c-0.9-1.1-1.3-2.5-1.2-3.9c0.2-2.3,1.9-4.1,4.1-4.6
							c0.4-0.6,1.4-2.4,2-7c1.4-10.7-1.4-21.3-1.4-21.4c-0.8-2.8,0.9-5.8,3.8-6.5c0.5-0.1,0.9-0.2,1.4-0.2c2.4,0,4.5,1.6,5.1,3.9
							c0.1,0.5,3.4,12.7,1.7,25.6C61.4,97.2,54.7,98.7,52,98.7L52,98.7z"/>
						<path class="st3" d="M56.5,53.8c2,0,3.9,1.4,4.5,3.4c0.1,0.5,3.3,12.5,1.7,25.3C60.7,96.7,54.3,98.1,52,98.1
							c-0.2,0-0.4,0-0.6,0c-2.5-0.3-4.4-2.5-4.1-5.1c0.2-2.1,1.8-3.7,3.8-4.1c0.4-0.5,1.6-2.3,2.3-7.5C54.8,70.5,52,59.7,52,59.6
							c-0.7-2.5,0.8-5,3.3-5.7C55.6,53.9,56,53.8,56.5,53.8 M52.4,88.8L52.4,88.8L52.4,88.8 M52.4,88.8L52.4,88.8L52.4,88.8
							 M56.5,52.4c-0.5,0-1.1,0.1-1.6,0.2c-3.2,0.9-5.1,4.2-4.2,7.4c0,0.1,2.8,10.6,1.4,21.2c-0.5,4-1.3,5.8-1.7,6.5
							c-2.4,0.7-4.1,2.7-4.4,5.2c-0.2,1.6,0.3,3.2,1.3,4.4c1,1.2,2.5,2,4,2.2c0.2,0,0.5,0,0.7,0c3,0,10-1.6,12-16.7
							c1.7-13-1.6-25.3-1.7-25.8C61.5,54.3,59.1,52.4,56.5,52.4L56.5,52.4L56.5,52.4z"/>
					</g>
					<g>
						<path class="st2" d="M17.1,106.9c-1.7,0-3.3-0.8-4.3-2.2c-1.7-2.4-1.2-5.7,1.1-7.4c0.3-0.2,6.7-5.2,7.1-14.7
							c0.5-12.4,0.6-22.3,0.6-22.4c0-2.9,2.4-5.2,5.4-5.3c3,0,5.3,2.4,5.3,5.4c0,1.9-0.2,11.4-0.6,22.7c-0.6,14.9-11,22.6-11.4,22.9
							C19.4,106.5,18.3,106.9,17.1,106.9z"/>
						<path class="st3" d="M27,55.6c2.6,0,4.6,2.1,4.6,4.7c0,0.1-0.1,10.3-0.6,22.7c-0.6,14.5-10.7,22.1-11.1,22.4
							c-0.8,0.6-1.8,0.9-2.7,0.9c-1.4,0-2.8-0.7-3.8-1.9c-1.5-2.1-1-4.9,1-6.4c0.3-0.2,7-5.4,7.4-15.3c0.5-12.2,0.6-22.3,0.6-22.4
							C22.4,57.6,24.5,55.7,27,55.6 M27,54.2L27,54.2c-3.4,0.1-6,2.7-6.1,5.9c0,0.1-0.1,10.1-0.6,22.4c-0.4,9.2-6.5,14-6.8,14.2
							c-2.6,1.9-3.2,5.7-1.3,8.4c1.1,1.6,3,2.5,4.9,2.5c1.3,0,2.5-0.4,3.5-1.2c0.5-0.3,11.1-8.2,11.7-23.5
							c0.4-11.4,0.6-20.8,0.6-22.6l0,0v-0.1c0-1.6-0.6-3.1-1.7-4.3C30.1,54.9,28.6,54.2,27,54.2L27,54.2L27,54.2z"/>
					</g>
				</g>
			</g>
		</g>
		<g>
			<path class="st4" d="M208.4,32.6"/>
		</g>
		<g>
			<path class="st5" d="M203.6,221.3"/>
		</g>
	</g>
</g>
</svg>
